<svg width="15" height="15" viewBox="0 0 15 15" fill="none" xmlns="http://www.w3.org/2000/svg">
<g clip-path="url(#clip0_110_1919)">
<path d="M11.5553 2.59485C9.3156 0.311481 5.68429 0.311481 3.44456 2.59485C2.91279 3.13329 2.49025 3.77647 2.20175 4.48658C1.91326 5.19669 1.76465 5.9594 1.76465 6.72989C1.76465 7.50038 1.91326 8.2631 2.20175 8.97321C2.49025 9.68332 2.91279 10.3265 3.44456 10.8649L7.49959 15L11.5553 10.8649C12.0871 10.3265 12.5096 9.68332 12.7981 8.97321C13.0866 8.2631 13.2352 7.50038 13.2352 6.72989C13.2352 5.9594 13.0866 5.19669 12.7981 4.48658C12.5096 3.77647 12.0871 3.13329 11.5553 2.59485ZM7.49959 8.6841C7.02067 8.6841 6.57115 8.49091 6.23203 8.14019C5.89632 7.79152 5.70779 7.31906 5.70779 6.82649C5.70779 6.33392 5.89632 5.86146 6.23203 5.51279C6.57043 5.16207 7.02067 4.96888 7.49959 4.96888C7.9785 4.96888 8.42874 5.16207 8.76714 5.51279C9.10285 5.86146 9.29138 6.33392 9.29138 6.82649C9.29138 7.31906 9.10285 7.79152 8.76714 8.14019C8.42874 8.49091 7.9785 8.6841 7.49959 8.6841Z" fill="#05A93D"/>
</g>
<defs>
<clipPath id="clip0_110_1919">
<rect width="15" height="15" fill="white"/>
</clipPath>
</defs>
</svg>
