<svg width="54" height="76" viewBox="0 0 54 76" fill="none" xmlns="http://www.w3.org/2000/svg">
<mask id="mask0_2501_609" style="mask-type:luminance" maskUnits="userSpaceOnUse" x="1" y="0" width="53" height="60">
<path d="M53.1822 0H1.50391V59.1952H53.1822V0Z" fill="white"/>
</mask>
<g mask="url(#mask0_2501_609)">
<path d="M25.431 50.0907C25.3981 48.6249 25.1867 41.8503 24.9847 40.4033C24.8672 39.5718 24.4961 38.8389 24.0169 38.153C22.988 36.6778 20.2491 34.7281 20.1222 34.6388C17.1531 32.6422 13.3054 32.271 13.3054 32.271C12.8497 32.2851 12.3987 32.2851 11.9524 32.3744C10.4349 32.6751 9.63152 33.5583 9.40132 35.1791C8.7248 34.4039 9.22749 32.9569 10.651 31.5616C8.9644 31.0354 7.0523 31.4442 5.67578 32.6751C5.80733 32.2757 5.99525 32.0173 6.22075 31.7871C6.95365 31.0213 7.90265 30.7019 8.92212 30.5375C9.50937 30.4435 10.0966 30.4529 10.7919 30.4623C9.76777 29.3113 9.18521 28.0522 9.04897 26.5582C9.32615 26.9716 9.58924 27.3475 9.84293 27.7327C11.1349 29.7153 12.9061 30.9462 15.2927 31.2797C16.6034 31.463 17.8813 31.8247 19.1215 32.3039C19.1732 32.3227 19.2202 32.365 19.2907 32.318C18.8115 31.5005 18.5484 30.575 17.9752 29.8046C17.4584 29.1092 16.8336 28.5596 16.0866 28.1274C15.5323 27.8079 14.9497 27.5448 14.4188 27.1831C13.7611 26.732 13.3289 26.126 13.094 25.2522C13.8691 26.328 14.9873 26.6804 16.049 27.122C16.4155 27.2723 16.7772 27.4321 17.1531 27.5918C16.937 26.281 16.8383 24.975 17.2047 23.6736C17.3833 25.83 18.0081 27.822 19.3283 29.6213C19.5866 28.7146 20.1081 27.977 20.4511 27.1549C20.686 26.5958 20.8128 26.0273 20.639 25.3273C21.0759 25.8629 21.1652 26.3891 21.043 26.9482C20.9021 27.5918 20.7283 28.2307 20.5591 28.8696C20.4088 29.4381 20.3806 30.016 20.3806 30.5985C20.3806 30.9227 20.4887 31.214 20.6484 31.4911C21.7994 33.469 23.4813 34.808 25.6283 35.5831C25.774 35.6348 25.8867 35.6818 25.9008 35.4469C26.0746 31.8153 25.727 28.2636 24.2894 24.8763C24.0592 24.3314 23.7444 23.8287 23.378 23.3589C22.2457 21.8978 20.7706 21.4796 19.0464 22.1468C18.8726 22.2125 18.7034 22.2877 18.5296 22.3535C18.5202 22.3394 18.5061 22.33 18.492 22.3159C19.1544 21.4796 20.0471 21.0803 21.0853 20.9441C21.1417 20.9394 21.2028 20.9394 21.3061 20.9347C21.1229 20.681 20.8786 20.5635 20.639 20.4461C19.8779 20.0702 19.0558 19.8447 18.2712 19.5394C17.7074 19.3186 17.1531 19.0837 16.6692 18.7172C16.3685 18.4917 16.1007 18.2427 15.9739 17.8763C15.988 17.8575 16.0021 17.8387 16.0161 17.8199C16.8571 18.3414 17.8061 18.5716 18.7457 18.8394C19.643 19.093 20.5263 19.3561 21.3296 19.8494C21.3531 19.8588 21.3954 19.8776 21.4001 19.8729C21.4236 19.84 21.4048 19.8212 21.3672 19.8165C21.2263 18.9427 21.1135 18.0736 21.2216 17.1856C21.2451 16.9789 21.2826 16.7769 21.3343 16.5702C21.4518 18.7172 22.6122 20.3098 24.0592 21.7521C24.5384 22.2266 25.0176 22.6964 25.4921 23.1756C26.0417 23.73 26.5585 24.3079 26.9015 25.0455C26.9344 24.6649 26.9626 24.2797 27.0001 23.8991C27.0894 22.9031 27.1881 21.9119 27.2632 20.9159C27.3948 19.2058 26.8686 17.693 25.8679 16.3212C25.0599 15.2125 24.1437 14.2259 22.8236 13.6762C23.1384 13.5917 23.6411 13.648 24.0545 13.8406C25.4357 14.489 26.6431 15.344 27.4183 16.7064C27.4277 16.7205 27.4512 16.7252 27.5404 16.7675C27.5921 13.8078 27.2632 10.9608 26.0464 8.25469C26.1639 8.2171 26.2391 8.36744 26.3236 8.4614C27.0659 9.24128 27.4559 10.2185 27.7894 11.2144C28.0102 11.8675 28.1934 12.5393 28.4142 13.2769C29.382 11.8816 30.2277 10.444 31.7686 9.6688C31.8203 9.64531 31.8955 9.6641 32.0552 9.6641C29.6827 11.8346 28.6163 14.4514 28.931 17.6601C29.3069 17.0823 29.7109 16.5984 30.1666 16.1615C31.017 15.344 31.9331 14.6205 33.0418 14.1695C33.5727 13.9534 34.1224 13.8125 34.7707 13.9816C34.4606 14.099 34.2069 14.1883 33.9626 14.2917C32.4733 14.9306 31.374 15.997 30.5613 17.3736C29.4478 19.2575 28.9404 21.3011 28.9498 23.5609C29.9411 22.6776 31.1062 22.3112 32.2948 21.9964C32.9244 21.8273 33.5539 21.6723 34.1787 21.4843C35.2452 21.1649 36.1754 20.6152 36.9412 19.7978C37.8009 18.8816 38.1204 17.8058 37.8714 16.5655C37.8573 16.4997 37.8479 16.434 37.8291 16.3541C38.5761 16.9367 38.6231 18.8018 37.9466 20.089C38.4868 20.3286 41.8224 19.1118 43.6735 17.9937C43.4667 18.4165 43.1473 18.6937 42.7996 18.9427C41.6251 19.7837 40.3003 20.3098 38.9566 20.8125C38.0217 21.1602 37.068 21.4562 36.0439 21.7427C37.0633 21.9964 38.0546 22.1656 38.858 22.983C38.3271 22.8891 37.8902 22.7622 37.4345 22.7246C35.0009 22.5461 32.7411 23.0488 30.7022 24.4112C29.6216 25.1347 28.9921 26.1589 28.7572 27.4274C28.3861 29.4193 28.3391 31.416 28.6773 33.4173C28.6867 33.4831 28.7102 33.5489 28.7243 33.61C28.7619 33.6147 28.7901 33.6241 28.7995 33.6147C29.8753 32.5106 31.2049 31.7589 32.5156 30.9885C33.3049 30.5234 34.1271 30.1005 34.7942 29.4569C35.9217 28.367 36.0673 27.0421 35.2217 25.5857C35.5459 25.628 35.7714 25.8018 35.964 26.0085C36.5231 26.6099 36.8989 27.3099 36.9647 28.1415C36.9882 28.4515 37.162 28.5408 37.4204 28.5408C37.8432 28.5361 38.2049 28.3388 38.5479 28.118C39.8868 27.2535 40.662 26.3562 41.5218 24.7025C41.9587 25.9569 41.0942 27.5824 39.0694 29.2408C40.4506 29.1327 41.7379 29.2784 42.9781 29.7482C44.2043 30.2133 45.2802 30.8898 46.0554 31.9797C44.256 30.9274 42.3063 30.575 40.2627 30.6549C38.0593 30.7395 35.9546 31.2375 34.0519 32.3932C31.6418 33.859 30.2277 36.0388 29.8143 38.7966C29.3257 42.0617 29.119 46.7645 29.4572 50.0672C28.7196 50.5605 26.8404 51.5001 25.431 50.0907Z" fill="#05A93D"/>
<path d="M37.4958 5.07876C36.1099 5.7036 35.4616 6.99555 34.6582 8.25463C34.4844 7.611 34.4891 7.04253 34.5784 6.49286C35.0529 3.5472 37.5193 2.26464 39.9858 2.30692C40.1314 2.31162 40.2395 2.31632 40.1925 2.51833C39.8354 4.06868 39.4455 5.60963 38.4965 6.92978C37.8811 7.78482 37.0824 8.39087 36.0488 8.66805C35.6683 8.77141 35.6354 8.73852 35.7059 8.35798C35.922 7.17878 36.5374 6.20628 37.2891 5.30426C37.3549 5.22909 37.4254 5.15393 37.4958 5.07876Z" fill="#F67C01"/>
<path d="M49.5365 21.4043C48.1788 21.4888 47.1828 22.3486 46.0693 23.0956C46.2291 22.2311 46.5861 21.5264 47.1452 20.9392C48.4841 19.5344 50.1143 19.2385 51.9372 19.7553C52.1909 19.8304 52.4493 19.8962 52.6936 20.023C52.8486 20.1029 52.858 20.1734 52.7593 20.3143C52.0217 21.315 51.2654 22.3063 50.26 23.0533C49.3814 23.7016 48.3996 24.0962 47.272 23.9929C47.1217 23.9788 46.9385 24.007 46.8586 23.8613C46.7693 23.6922 46.9244 23.5513 47.0183 23.4291C47.662 22.5741 48.517 21.9915 49.4707 21.5358C49.5036 21.5217 49.5318 21.5029 49.56 21.4841C49.5506 21.4606 49.5412 21.4325 49.5365 21.4043Z" fill="#F67C01"/>
<path d="M25.1631 5.94781C24.6933 4.98941 24.2846 3.98403 23.4577 3.24174C23.3544 3.14778 23.2369 3.07262 23.0302 3.00684C23.4624 3.54242 23.7349 4.09679 23.9745 4.66995C24.1624 5.12096 24.294 5.58606 24.3034 6.08405C24.3081 6.35654 24.2 6.37063 23.9886 6.28137C23.1711 5.93841 22.5275 5.39814 22.0718 4.63236C21.3248 3.38269 21.1369 1.98267 20.9443 0.582659C20.9067 0.324267 21.1557 0.418228 21.2402 0.427624C22.1329 0.512189 22.9362 0.808164 23.6832 1.33434C25.0832 2.31623 25.7597 4.12967 25.2852 5.77398C25.2712 5.83506 25.2618 5.90553 25.1631 5.94781Z" fill="#F67C01"/>
<path d="M12.2059 21.409C12.6851 21.8271 13.2019 22.1936 13.6106 22.6869C13.9019 23.0345 14.1743 23.3916 14.367 23.805C14.5032 24.0916 14.4046 24.1433 14.1368 24.1339C12.8965 24.0869 11.9146 23.5231 11.1065 22.6305C10.3924 21.8412 9.87565 20.9204 9.37766 19.9902C9.24142 19.7318 9.32128 19.6473 9.56558 19.5956C10.8434 19.3184 12.0884 19.3513 13.2394 20.0419C14.4093 20.7419 15.1703 22.0761 15.1985 23.4386C14.2824 22.6023 13.479 21.6486 12.2059 21.409Z" fill="#F67C01"/>
<path d="M5.56323 20.9297C5.29544 22.1746 5.82162 23.2787 6.25384 24.4767C5.68068 24.2324 5.26725 23.9176 4.9149 23.5136C3.65583 22.0572 3.4961 20.1263 4.49208 18.482C4.63772 18.2471 4.80685 18.0263 4.95718 17.7914C5.05584 17.6363 5.1451 17.6176 5.27195 17.7726C6.29142 19.0129 7.28271 20.2672 7.51761 21.935C7.61157 22.5975 7.48942 23.2223 7.24043 23.8377C7.15116 24.0539 7.0525 24.0257 6.91626 23.8847C6.38538 23.3398 6.06592 22.6773 5.83571 21.9632C5.73236 21.6156 5.65249 21.2726 5.56323 20.9297Z" fill="#F67C01"/>
<path d="M5.53031 32.2004C4.78332 32.9239 4.03164 33.6474 3.57593 34.6011C3.55244 34.6481 3.57123 34.7139 3.57123 34.7937C3.77794 34.7608 3.86251 34.6011 3.97056 34.4743C4.48265 33.8823 5.05581 33.3608 5.76991 33.0132C5.89206 32.9521 6.0377 32.844 6.15984 32.9239C6.28669 33.0085 6.21622 33.1823 6.20682 33.3139C6.09877 34.6904 5.34708 35.6817 4.29003 36.485C3.58532 37.0206 2.79605 37.4199 2.01148 37.824C1.80007 37.932 1.70141 37.8944 1.64973 37.6548C1.33497 36.0481 1.49 34.5541 2.70679 33.3232C3.4021 32.6232 4.26184 32.2427 5.24373 32.1346C5.3236 32.1253 5.42225 32.0924 5.53031 32.2004Z" fill="#F67C01"/>
<path d="M13.7987 14.8927C13.2913 14.5685 12.8309 14.1786 12.2953 13.8967C11.7738 13.6242 11.2618 13.3329 10.5523 13.3658C11.2007 13.6853 11.7456 14.0047 12.2295 14.4182C12.5819 14.7235 12.9108 15.043 13.1457 15.4564C13.2537 15.6444 13.2114 15.7148 13 15.7477C12.0604 15.8933 11.1913 15.6725 10.402 15.1792C9.21811 14.4464 8.40065 13.3611 7.60668 12.2524C7.53621 12.1537 7.53151 12.0832 7.64896 12.0363C8.90334 11.5195 10.1859 11.3269 11.4732 11.8859C12.7604 12.4403 13.5638 13.4269 13.8551 14.8081C13.8598 14.8175 13.8551 14.8316 13.8504 14.841C13.8269 14.8598 13.8128 14.8786 13.7987 14.8927Z" fill="#F67C01"/>
<path d="M46.7928 29.8373C47.9156 29.6822 49.062 29.64 50.0955 28.9212C49.8653 28.8648 49.7385 28.9681 49.6022 28.9775C49.466 28.9869 49.3298 29.0339 49.1935 29.0574C48.4653 29.1937 47.7418 29.2124 47.0183 29.0339C46.727 28.9634 46.6895 28.8789 46.9009 28.6346C47.6056 27.8312 48.5029 27.4413 49.5459 27.3238C50.7063 27.1923 51.8338 27.4084 52.966 27.6198C53.1305 27.6527 53.2526 27.695 53.1493 27.9158C52.4774 29.3158 51.5002 30.3635 49.9076 30.65C48.9022 30.8333 47.9438 30.6453 47.0653 30.1051C46.9619 30.044 46.8539 29.9923 46.7928 29.8373Z" fill="#F67C01"/>
<path d="M44.6884 17.7257C45.1065 17.2136 45.4964 16.7908 45.83 16.321C46.1636 15.8512 46.4736 15.3532 46.5441 14.6673C46.2293 15.076 45.9709 15.4378 45.6844 15.776C45.2897 16.2458 44.8669 16.6922 44.2937 16.9552C44.1011 17.0445 44.04 17.0069 44.0306 16.7861C43.9743 15.8042 44.3031 14.9539 44.8998 14.2069C45.6891 13.2156 46.7555 12.5673 47.8267 11.933C47.9535 11.8579 48.024 11.8626 48.0757 12.0223C48.6535 13.817 48.3904 15.8418 46.5911 17.068C46.0367 17.4344 45.4307 17.6365 44.6884 17.7257Z" fill="#F67C01"/>
<path d="M47.6344 35.2447C47.7988 34.8266 47.7095 34.4978 47.625 34.1783C47.4699 33.5816 47.282 32.9991 46.9954 32.4494C46.9531 32.3649 46.8451 32.2521 46.9578 32.1722C47.0377 32.1159 47.127 32.2145 47.2068 32.2568C49.025 33.2481 49.7109 35.2917 48.8699 37.1803C48.7149 37.5327 48.5364 37.8663 48.3203 38.1857C48.2263 38.3267 48.1511 38.3548 48.029 38.2186C47.1411 37.232 46.2719 36.2266 45.9008 34.9159C45.6988 34.2112 45.7035 33.5018 45.9525 32.7971C46.0464 32.534 46.1545 32.5293 46.333 32.7172C46.8827 33.2951 47.2115 33.9904 47.4652 34.7327C47.5169 34.8736 47.5592 35.0145 47.6344 35.2447Z" fill="#F67C01"/>
<path d="M29.8569 5.57671C30.2657 4.66059 30.8576 3.81025 30.7402 2.74849C30.5053 3.31696 30.2563 3.87602 29.9039 4.38811C29.7254 4.6465 29.5046 4.872 29.2791 5.08342C29.1334 5.21966 29.0536 5.20087 28.9972 5.00355C28.7059 4.01226 28.9267 3.10085 29.4341 2.23641C29.918 1.40955 30.5851 0.733038 31.2851 0.0847102C31.4214 -0.0374386 31.4919 -0.0233445 31.5764 0.117596C32.7274 2.05788 32.361 4.37401 30.2939 5.47805C30.1717 5.54382 30.0496 5.61899 29.8569 5.57671Z" fill="#F67C01"/>
<path d="M18.6753 8.17932C17.8249 7.63904 16.9887 7.08468 15.941 7.06119C16.5424 7.38535 17.1531 7.68133 17.6511 8.16052C17.7592 8.26388 17.8766 8.36254 17.9659 8.48469C18.0598 8.60684 18.2478 8.73368 18.1679 8.88402C18.0974 9.01557 17.8813 9.01087 17.7216 9.02026C16.6927 9.10013 15.8095 8.72899 15.0249 8.09945C14.4048 7.60616 13.8786 7.0189 13.3853 6.40346C13.2725 6.26252 13.1927 6.13098 13.4323 6.02762C14.5739 5.54372 15.7249 5.33701 16.8994 5.90547C17.7733 6.32829 18.3652 7.0189 18.6941 7.93502C18.7035 7.99609 18.7457 8.06187 18.6753 8.17932Z" fill="#F67C01"/>
<path d="M9.02081 35.2212C9.08658 36.1232 9.13826 37.0158 9.67384 37.8051C9.64565 37.5796 9.62686 37.3494 9.59397 37.1239C9.5188 36.5883 9.54229 36.0621 9.66444 35.536C9.69263 35.4185 9.69733 35.2541 9.83827 35.2212C9.96042 35.1883 10.0309 35.3293 10.1061 35.4091C10.8859 36.2078 11.0222 37.1991 10.9517 38.2467C10.9094 38.8716 10.7497 39.4776 10.604 40.0837C10.5524 40.2857 10.496 40.5018 10.1953 40.3092C9.19464 39.6749 8.42886 38.8669 8.26912 37.6407C8.15167 36.7387 8.40537 35.9259 9.02081 35.2212Z" fill="#F67C01"/>
<path d="M41.2539 10.7352C40.4412 10.9419 39.8962 11.5245 39.2714 12.1117C39.1774 11.5902 39.3512 11.1862 39.5485 10.8151C40.3707 9.25061 41.9351 8.86537 43.4432 9.22242C43.5654 9.25061 43.6546 9.2788 43.6217 9.44793C43.4056 10.6177 41.6908 12.3513 40.4881 12.6003C40.272 12.6426 39.9855 12.7365 39.8633 12.5721C39.7412 12.4124 39.9526 12.1916 40.0606 12.0177C40.2908 11.6419 40.5915 11.3177 40.9345 11.0359C41.0378 10.9419 41.1412 10.8385 41.2539 10.7352Z" fill="#F67C01"/>
<path d="M19.4834 16.1001C19.3237 15.6303 19.2016 15.1464 18.9573 14.7142C18.8586 14.5357 18.8116 14.2162 18.5626 14.2773C18.4499 14.3055 18.6049 14.6249 18.666 14.8035C18.8163 15.2263 18.8915 15.6491 18.868 16.1001C18.8539 16.3256 18.7834 16.3632 18.5955 16.2505C18.0458 15.9263 17.6512 15.4612 17.421 14.8739C17.0733 13.9813 17.0217 13.0464 17.0405 12.1021C17.0452 11.9471 17.0968 11.8578 17.2801 11.9095C18.4734 12.243 19.3801 12.9008 19.7418 14.1364C19.911 14.7283 19.8687 15.3297 19.6573 15.9169C19.6244 15.9827 19.6056 16.0719 19.4834 16.1001Z" fill="#F67C01"/>
<path d="M4.57206 28.1318C4.95729 28.9164 5.69489 29.3251 6.45127 29.8184C5.50227 30.0016 4.7177 29.8043 4.02708 29.2547C3.23782 28.6204 2.93714 27.7513 2.86197 26.7788C2.84318 26.5204 2.89016 26.3936 3.20493 26.4687C4.19621 26.6989 5.15931 26.9855 5.94858 27.6761C6.30563 27.9909 6.54523 28.3808 6.70966 28.8224C6.74724 28.9258 6.82241 29.0573 6.74724 29.156C6.65798 29.2734 6.52644 29.1701 6.42308 29.1466C5.71838 28.9681 5.12642 28.5875 4.57206 28.1318Z" fill="#F67C01"/>
<path d="M23.2696 10.5426C23.1897 11.4305 23.6877 12.0788 24.0119 12.7976C23.1192 12.6003 22.2595 11.6466 22.1326 10.7164C22.034 9.96002 22.1702 9.24122 22.5414 8.5694C22.6447 8.37678 22.7293 8.37678 22.8749 8.51772C23.4481 9.08149 24.0259 9.63116 24.4112 10.3453C24.7166 10.9137 24.8387 11.5151 24.7213 12.154C24.7025 12.2527 24.7025 12.3795 24.585 12.4124C24.4817 12.4406 24.43 12.3325 24.3595 12.2715C23.8333 11.8157 23.5514 11.2144 23.2696 10.5426Z" fill="#F67C01"/>
<path d="M31.0548 28.423C30.6273 28.6814 30.491 29.1512 30.2373 29.5411C29.9273 29.1747 30.1246 28.0566 30.5474 27.5586C31.0031 27.0183 31.5951 26.774 32.2669 26.6659C32.4031 26.6425 32.5394 26.6425 32.5065 26.8445C32.3514 27.7935 32.2293 28.7613 31.4259 29.4425C31.2239 29.6163 30.9655 29.8747 30.74 29.7291C30.5521 29.6069 30.7259 29.2874 30.8105 29.0619C30.8904 28.8458 30.9749 28.6344 31.0548 28.423ZM31.1065 28.268L31.0924 28.2868L31.1112 28.2915L31.1065 28.268Z" fill="#F67C01"/>
<path d="M23.5896 30.542C23.7117 30.8474 23.8245 31.1058 23.9279 31.3736C23.9936 31.5427 24.0876 31.7729 23.9373 31.8857C23.801 31.9937 23.6131 31.8246 23.4674 31.74C23.0916 31.5239 22.8238 31.1951 22.65 30.8145C22.3916 30.2555 22.246 29.6588 22.1802 29.0434C22.1614 28.8461 22.2178 28.785 22.401 28.8085C23.7493 28.9776 24.75 29.9125 24.5621 31.4629C24.5527 31.5333 24.5527 31.6179 24.4728 31.632C24.3836 31.6508 24.3648 31.5568 24.3319 31.5004C24.1815 31.2515 24.0406 31.0025 23.8903 30.7535C23.8386 30.6595 23.7822 30.5561 23.5896 30.542ZM23.5144 30.434L23.4956 30.4246V30.4434L23.5144 30.434Z" fill="#F67C01"/>
<path d="M42.198 21.7189C41.5731 21.6015 41.0376 21.888 40.4033 22.0619C40.6147 21.5263 40.9577 21.188 41.4087 20.9766C42.3295 20.5444 43.1846 20.7229 43.9973 21.2867C44.1195 21.3712 44.1523 21.4558 44.0255 21.5592C43.396 22.076 42.7711 22.5927 41.9443 22.7713C41.606 22.8417 41.2772 22.8323 40.9483 22.7525C40.8449 22.729 40.7275 22.7008 40.6993 22.588C40.6711 22.4706 40.7839 22.4095 40.859 22.3437C41.1127 22.137 41.4087 22.0008 41.7141 21.8927C41.8785 21.8317 42.0382 21.7753 42.198 21.7189Z" fill="#F67C01"/>
<path d="M42.7666 27.5118C42.9733 26.8259 43.9223 26.2386 44.8055 26.2903C45.3411 26.3232 45.8203 26.5252 46.2666 26.8024C46.3841 26.8728 46.478 26.9621 46.3183 27.0983C45.67 27.648 45.0029 28.1648 44.1384 28.3339C43.8237 28.395 43.5136 28.3715 43.2129 28.2869C43.1143 28.2588 42.9874 28.2353 42.9592 28.1272C42.9357 28.0145 43.0532 27.9534 43.133 27.8923C43.5418 27.5681 44.0257 27.4037 44.6035 27.2487C44.068 27.1453 43.6498 27.2675 43.2364 27.4225C43.0955 27.4742 42.9686 27.5681 42.8136 27.5728C42.7995 27.5447 42.7854 27.5306 42.7666 27.5118Z" fill="#F67C01"/>
<path d="M25.8021 20.4035C25.5202 19.976 25.3088 19.4921 24.7873 19.1585C25.0128 19.5719 25.2477 19.8867 25.3276 20.2766C25.3558 20.3988 25.4263 20.5538 25.3182 20.6384C25.2149 20.7229 25.0739 20.6243 24.9612 20.5726C24.3739 20.3095 24.0357 19.8162 23.7914 19.2478C23.5987 18.7967 23.5001 18.3222 23.4108 17.843C23.3873 17.7115 23.4061 17.641 23.5518 17.6457C25.0551 17.6974 26.1498 18.839 25.882 20.3283C25.882 20.3424 25.8538 20.3565 25.8021 20.4035Z" fill="#F67C01"/>
<path d="M32.6711 19.2713C32.1825 19.5438 31.9335 19.9807 31.5717 20.4177C31.4731 19.7646 31.6328 19.2432 31.9805 18.7827C32.5113 18.0827 33.2536 17.8525 34.104 17.8901C34.259 17.8948 34.3577 17.9371 34.3013 18.1156C34.0288 18.9613 33.7375 19.7928 32.9764 20.3472C32.7134 20.5398 32.3234 20.817 32.1073 20.6291C31.8724 20.4224 32.2342 20.0841 32.3563 19.8116C32.4315 19.6331 32.6147 19.5203 32.6711 19.2713Z" fill="#F67C01"/>
<path d="M40.6337 16.4009C40.3048 16.5371 40.1779 16.8472 40.0182 17.1291C39.9102 17.317 39.8209 17.5143 39.7081 17.7257C39.3699 17.0163 39.6706 16.0861 40.2155 15.6163C40.5585 15.3203 40.9719 15.17 41.4088 15.076C41.5827 15.0384 41.7189 15.0713 41.686 15.2968C41.5592 16.1707 41.4417 17.0492 40.7088 17.6787C40.629 17.7492 40.5491 17.8056 40.4551 17.8479C40.3612 17.8901 40.2672 17.9183 40.1498 17.9653C40.0746 17.3593 40.3424 16.8754 40.6337 16.4009Z" fill="#F67C01"/>
<path d="M38.7872 25.6043C38.2516 26.0036 38.0684 26.5392 37.81 27.0419C37.3683 26.06 37.9697 24.8479 39.069 24.4768C39.8066 24.2278 39.8348 24.2419 39.7315 24.9936C39.6563 25.5573 39.5153 26.107 39.1677 26.5768C38.9986 26.807 38.7965 26.9902 38.5382 27.1077C38.4583 27.1453 38.369 27.2298 38.2845 27.1593C38.2046 27.0936 38.2375 26.9855 38.2516 26.8963C38.308 26.4499 38.4959 26.0553 38.7872 25.6043Z" fill="#F67C01"/>
<path d="M28.8512 9.75303C28.6632 10.0537 28.6492 10.3638 28.5599 10.7208C28.231 10.2463 28.1277 9.77652 28.2498 9.29732C28.4236 8.60671 28.8747 8.12751 29.5324 7.84093C29.7062 7.76577 29.7955 7.81275 29.819 7.99597C29.9035 8.73356 29.9787 9.47115 29.6075 10.1665C29.5888 10.1993 29.5747 10.2275 29.5559 10.2557C29.4337 10.4718 29.2411 10.7396 29.0344 10.6973C28.7995 10.6504 28.931 10.3215 28.9122 10.1148C28.8981 10.0114 28.9451 9.90807 28.8512 9.75303Z" fill="#F67C01"/>
<path d="M32.8212 11.703C32.342 11.8486 32.0367 12.2292 31.6796 12.5815C31.5669 12.4124 31.6467 12.2714 31.6749 12.1399C31.9051 11.1204 32.9763 10.552 33.9582 10.7493C34.0756 10.7728 34.1743 10.8198 34.1179 10.9513C33.7749 11.7594 33.3803 12.5345 32.4877 12.8869C32.342 12.9433 32.1353 13.0607 32.0367 12.9292C31.9333 12.7929 32.0742 12.6097 32.1776 12.4688C32.3655 12.1916 32.5816 11.9379 32.8212 11.703Z" fill="#F67C01"/>
<path d="M42.8132 27.5632C42.7805 27.6007 42.7336 27.6288 42.7056 27.5867C42.6681 27.5352 42.7336 27.5258 42.7664 27.5071C42.7851 27.5305 42.7992 27.5445 42.8132 27.5632Z" fill="#F67C01"/>
<path d="M18.535 22.3538C18.5113 22.3633 18.4685 22.3824 18.4637 22.3776C18.44 22.3443 18.4637 22.3253 18.497 22.3206C18.5065 22.3301 18.5208 22.3396 18.535 22.3538Z" fill="#05A93D"/>
<path d="M15.9747 17.8721C15.9652 17.8483 15.9509 17.8246 15.9414 17.8008C15.9699 17.8055 15.9937 17.8103 16.0222 17.815C16.0032 17.8341 15.9889 17.8531 15.9747 17.8721Z" fill="#05A93D"/>
<path d="M13.8464 14.8459C13.8511 14.8697 13.8606 14.8982 13.8701 14.922C13.8464 14.9125 13.8226 14.903 13.7988 14.8935C13.8131 14.8792 13.8274 14.8602 13.8464 14.8459Z" fill="#F67C01"/>
<path d="M21.3681 19.8071C21.4014 19.8119 21.4252 19.8309 21.4014 19.8642C21.3966 19.8689 21.3538 19.8499 21.3301 19.8404C21.3443 19.8309 21.3586 19.8166 21.3681 19.8071Z" fill="#FEFEFD"/>
<path d="M31.1061 28.2681L31.1109 28.2919L31.0918 28.2872L31.1061 28.2681Z" fill="#FEFEFD"/>
<path d="M23.5142 30.4342L23.4951 30.439V30.4199L23.5142 30.4342Z" fill="#FEFEFD"/>
</g>
<path d="M28.1085 36.6821C28.0333 37.7015 28.3481 47.0459 28.193 48.056C28.1367 48.4224 28.2494 48.6245 28.5548 48.803C30.4246 49.907 32.4072 50.0949 34.4743 49.4936C36.2314 48.9815 37.979 48.4412 39.8113 48.2439C41.8549 48.0231 43.814 48.3379 45.7167 49.0708C46.0268 49.1882 46.3697 49.2681 46.7033 49.2869C47.9107 49.362 49.1275 49.3855 50.302 49.0285C50.7859 48.8828 51.2416 48.6292 51.6785 48.3755C52.0778 48.1453 52.3832 48.1218 52.6228 48.4083C52.8483 48.6808 52.7872 49.0332 52.4443 49.3151C51.6832 49.9493 50.7624 50.2124 49.7993 50.3721C49.5221 50.4191 49.2449 50.4567 48.8362 50.5225C49.0664 50.6493 49.1838 50.7245 49.3107 50.7809C50.5416 51.3164 51.7631 51.8614 53.1208 52.0164C53.4825 52.054 53.6893 52.3406 53.6423 52.6648C53.5859 53.0265 53.3369 53.2332 52.9893 53.1815C52.3503 53.0829 51.6832 53.0077 51.0913 52.7634C49.5127 52.1198 47.9436 51.4433 46.4261 50.6869C43.4288 49.1929 40.3469 49.0567 37.1616 49.9681C36.8374 50.0621 36.7576 50.1842 36.8844 50.5037C37.3636 51.7158 38.3361 52.3406 39.5435 52.646C40.2247 52.8198 40.9341 52.8856 41.6294 52.9748C43.0106 53.1534 43.1845 53.2896 43.5556 54.6285C43.5603 54.6426 43.5556 54.652 43.5509 54.7037C43.4945 54.699 43.4241 54.7131 43.3771 54.6849C42.4657 54.2292 41.4744 54.1399 40.4784 54.046C39.52 53.9567 38.6086 53.6983 37.7723 53.2285C36.781 52.6742 36.0622 51.8849 35.7099 50.8043C35.63 50.5553 35.5502 50.4097 35.2307 50.5178C33.1213 51.2319 31.0213 51.2413 28.9541 50.3674C28.9118 50.3486 28.8508 50.358 28.7239 50.3533C28.7944 50.5084 28.8367 50.6258 28.8978 50.7339C30.3119 53.205 32.4964 54.6567 35.2495 55.3661C36.2173 55.6151 37.1992 55.8547 38.1435 56.1742C39.5529 56.6487 40.7462 57.4849 41.8032 58.5044C42.8791 59.538 44.0959 60.3273 45.5523 60.7548C46.0315 60.8957 46.21 61.1823 46.0972 61.5346C45.9845 61.8917 45.6415 62.0044 45.1576 61.8729C43.5603 61.4313 42.2261 60.5669 41.0469 59.4487C40.8073 59.2232 40.5583 59.0165 40.3093 58.7957C40.2811 58.8145 40.2529 58.8333 40.2247 58.8521C40.3422 59.3501 40.4784 59.8434 40.5771 60.346C40.8307 61.6145 40.826 62.8877 40.5348 64.1514C40.4314 64.5978 40.1354 64.8515 39.7925 64.7857C39.4072 64.7105 39.2287 64.3911 39.3415 63.9025C39.8113 61.8353 39.4072 59.8856 38.5287 57.997C38.3596 57.6306 38.1106 57.391 37.716 57.2829C36.6589 56.9963 35.5971 56.7098 34.5401 56.4091C31.726 55.6104 29.485 54.0507 27.9675 51.5607C27.9206 51.4856 27.8548 51.4198 27.7326 51.2694C27.6998 51.4809 27.6622 51.603 27.6669 51.7205C27.7044 53.0782 27.742 54.4312 27.7843 55.789C27.7984 56.1742 27.9863 56.4326 28.3011 56.6816C30.683 58.5326 32.6092 60.7313 33.6944 63.5595C33.6991 63.5736 33.7085 63.583 33.7085 63.5971C33.9481 65.1051 35.1649 65.5045 36.4052 65.8146C36.8891 65.9367 37.4294 65.8897 37.9368 65.8803C38.3643 65.8709 38.6838 66.0495 38.726 66.3924C38.7683 66.7213 38.5334 66.9891 38.1247 67.0642C37.0582 67.2521 36.0482 67.0407 35.0569 66.6649C34.9723 66.632 34.883 66.6038 34.7045 66.5427C34.7609 66.7495 34.7891 66.8951 34.8408 67.0313C35.3622 68.3092 35.9589 69.5448 36.8797 70.6018C37.1334 70.8931 37.1052 71.2314 36.8421 71.4569C36.5884 71.673 36.2032 71.6777 35.973 71.3723C35.4562 70.677 34.9347 69.9723 34.5119 69.2159C33.671 67.7126 33.1964 66.0729 32.6891 64.438C31.9374 62.0232 30.3917 60.1158 28.5266 58.4292C28.4984 58.4058 28.4561 58.4011 28.3434 58.3541C28.3716 58.5561 28.3904 58.7111 28.4186 58.8709C28.6722 60.2192 28.9635 61.5581 29.1702 62.9159C29.33 63.9682 29.1843 65.0159 28.8837 66.0354C28.5031 67.3038 28.8273 68.4736 29.8749 69.2864C31.0494 70.2072 31.5474 71.4099 31.5568 72.8475C31.5568 72.9509 31.5568 73.0636 31.5333 73.167C31.4723 73.4958 31.2796 73.6932 30.9273 73.7025C30.6031 73.7072 30.3729 73.4629 30.3307 73.1106C30.2743 72.622 30.279 72.1146 30.1286 71.6589C29.9971 71.2549 29.7199 70.8837 29.4521 70.5455C29.2595 70.2965 28.9635 70.1273 28.7333 69.9018C28.5172 69.6857 28.3293 69.4414 28.0803 69.1502C28.0427 69.4038 28.0145 69.6012 27.9816 69.7985C27.7185 71.4616 27.7373 73.1153 28.1696 74.7549C28.1743 74.769 28.1743 74.7784 28.179 74.7925C28.2964 75.2858 28.1555 75.6052 27.7796 75.6945C27.4132 75.7838 27.1172 75.5677 26.995 75.0744C26.887 74.6328 26.7836 74.1911 26.7179 73.7448C26.436 71.8186 26.6286 69.9206 27.0702 68.0367C27.3474 66.8716 27.6716 65.7206 27.9347 64.5555C28.0192 64.1749 27.991 63.7709 28.0192 63.3763C27.9534 63.3293 27.8877 63.2776 27.8172 63.2306C27.7749 63.3387 27.7655 63.4655 27.6904 63.5501C27.2159 64.1092 26.7648 64.7011 26.234 65.2085C25.4118 65.9931 24.8246 66.8528 24.8574 68.032C24.8668 68.4032 24.5991 68.6616 24.2655 68.671C23.9319 68.6757 23.6688 68.4361 23.65 68.0602C23.5843 66.834 24.0447 65.7958 24.8574 64.889C25.097 64.6212 25.3742 64.3816 25.642 64.1327C26.5252 63.3105 27.1219 62.3004 27.5447 61.187C27.587 61.0789 27.6293 60.9474 27.6058 60.8393C27.3897 59.8528 27.1595 58.8709 26.9246 57.8561C26.8165 57.889 26.7414 57.8937 26.6991 57.9266C24.6695 59.6132 22.9829 61.5534 22.0668 64.0434C21.6158 65.2696 21.2635 66.5287 20.803 67.7501C20.3614 68.9293 19.7648 70.0381 18.9708 71.0341C18.8956 71.128 18.8205 71.222 18.7359 71.3112C18.4117 71.6589 18.0594 71.7153 17.7775 71.4663C17.4909 71.2173 17.5097 70.8931 17.8292 70.5173C18.7641 69.4179 19.356 68.1354 19.8775 66.8152C19.901 66.7589 19.8916 66.6931 19.901 66.5756C19.7648 66.6179 19.6661 66.6414 19.5769 66.679C18.5997 67.0548 17.599 67.2615 16.5466 67.0877C16.0956 67.0126 15.856 66.7542 15.9077 66.4112C15.9594 66.0448 16.2741 65.8568 16.7392 65.9085C18.1346 66.0776 19.3326 65.6219 20.4131 64.8045C20.5212 64.7246 20.6104 64.579 20.648 64.4474C21.4796 61.5769 23.2601 59.336 25.4776 57.3769C25.5809 57.2876 25.6702 57.1796 25.7877 57.1185C26.5346 56.7333 26.6521 56.1601 26.5158 55.3708C26.3655 54.497 26.4172 53.595 26.3843 52.7023C26.3796 52.552 26.3843 52.397 26.3843 52.2466C26.3373 52.2184 26.2903 52.1903 26.2434 52.1668C26.2011 52.2466 26.1729 52.3359 26.1165 52.4064C24.3548 54.7554 21.94 56.0661 19.0836 56.691C18.2896 56.8648 17.5191 57.1232 16.7533 57.3863C16.5466 57.4568 16.3305 57.6494 16.2319 57.8373C15.2359 59.787 14.8084 61.8212 15.3157 63.9917C15.405 64.377 15.2359 64.6917 14.8976 64.7857C14.5735 64.8749 14.254 64.6776 14.1506 64.2877C13.7795 62.9065 13.8124 61.5206 14.113 60.1346C14.2023 59.7212 14.3151 59.3125 14.4184 58.9037C14.3855 58.8803 14.3573 58.8568 14.3292 58.8286C14.1318 58.9977 13.9251 59.1621 13.7325 59.3407C12.7036 60.3038 11.5996 61.1541 10.2372 61.6333C9.9318 61.7414 9.62643 61.8494 9.31166 61.934C8.9687 62.0279 8.63514 61.84 8.53178 61.5253C8.44252 61.2434 8.61165 60.9051 8.95461 60.8111C10.6318 60.3601 11.9566 59.3736 13.1875 58.2084C14.7661 56.7145 16.7111 55.9487 18.8205 55.5071C21.4843 54.9527 23.7158 53.7171 25.2897 51.4809C25.5058 51.1708 25.689 50.8325 25.8863 50.5084C25.8628 50.4802 25.8393 50.4567 25.8158 50.4285C25.6655 50.4708 25.5152 50.5037 25.3695 50.5553C23.4527 51.2131 21.5312 51.2037 19.6144 50.5929C19.2433 50.4755 19.0601 50.4661 18.905 50.8983C18.2661 52.6413 16.8614 53.4963 15.1137 53.8862C14.2164 54.0883 13.2909 54.1587 12.3842 54.3279C10.7352 54.6332 9.59354 55.6245 8.79957 57.0245C8.60226 57.3722 8.48481 57.7574 8.35326 58.1333C8.20762 58.5467 7.93044 58.744 7.56869 58.6501C7.23983 58.5608 7.0754 58.2507 7.16936 57.8467C7.39016 56.9212 7.85057 56.1131 8.44252 55.3708C8.5083 55.2863 8.57877 55.2064 8.64454 55.1218C8.65863 55.103 8.65393 55.0702 8.66803 54.9809C8.53179 54.9621 8.40024 54.9339 8.264 54.9198C7.48882 54.8259 6.74653 54.6238 6.07941 54.2104C5.68008 53.9614 5.57203 53.6138 5.77874 53.3037C5.97606 53.003 6.29552 52.9654 6.71365 53.1862C8.12306 53.9238 9.57475 53.9285 11.0875 53.4916C12.0036 53.2238 12.9667 53.1064 13.9016 52.8856C14.6486 52.7117 15.4097 52.5473 16.1191 52.2654C16.9272 51.9413 17.4627 51.2976 17.7775 50.4849C17.8809 50.2171 17.8245 50.0761 17.5285 49.9916C14.3479 49.0755 11.266 49.1976 8.264 50.6869C6.74184 51.4433 5.17269 52.1151 3.59885 52.7681C3.04449 52.9983 2.42434 53.0876 1.8277 53.1862C1.35789 53.2661 1.05252 53.0453 1.00554 52.6742C0.958559 52.3171 1.21225 52.0728 1.69615 52.007C3.08677 51.8144 4.34584 51.246 5.60021 50.6728C5.6425 50.654 5.67538 50.607 5.73646 50.5506C5.13041 50.4332 4.53846 50.3815 4.00288 50.1936C3.38744 49.9775 2.79079 49.6768 2.23173 49.3386C1.8183 49.0896 1.78541 48.7137 2.03441 48.4224C2.27871 48.1359 2.59817 48.1171 2.96932 48.4083C3.83845 49.0802 4.87202 49.2164 5.91498 49.3151C6.07472 49.3292 6.23915 49.3245 6.40358 49.3339C7.61567 49.4231 8.75259 49.1741 9.89891 48.7748C12.2902 47.9385 14.7332 48.0607 17.1621 48.6761C18.3554 48.9815 19.5299 49.3761 20.7279 49.6533C22.7809 50.1278 24.7165 49.7755 26.5205 48.709C26.7695 48.5587 26.9152 48.3802 26.9387 48.0795C27.0843 46.3553 26.8588 38.3921 26.9246 36.668" fill="#05A93D"/>
<path d="M28.1085 36.6821C28.0333 37.7015 28.3481 47.0459 28.193 48.056C28.1367 48.4224 28.2494 48.6245 28.5548 48.803C30.4246 49.907 32.4072 50.0949 34.4743 49.4936C36.2314 48.9815 37.979 48.4412 39.8113 48.2439C41.8549 48.0231 43.814 48.3379 45.7167 49.0708C46.0268 49.1882 46.3697 49.2681 46.7033 49.2869C47.9107 49.362 49.1275 49.3855 50.302 49.0285C50.7859 48.8828 51.2416 48.6292 51.6785 48.3755C52.0778 48.1453 52.3832 48.1218 52.6228 48.4083C52.8483 48.6808 52.7872 49.0332 52.4443 49.3151C51.6832 49.9493 50.7624 50.2124 49.7993 50.3721C49.5221 50.4191 49.2449 50.4567 48.8362 50.5225C49.0664 50.6493 49.1838 50.7245 49.3107 50.7809C50.5416 51.3164 51.7631 51.8614 53.1208 52.0164C53.4825 52.054 53.6893 52.3406 53.6423 52.6648C53.5859 53.0265 53.3369 53.2332 52.9893 53.1815C52.3503 53.0829 51.6832 53.0077 51.0912 52.7634C49.5127 52.1198 47.9436 51.4433 46.4261 50.6869C43.4288 49.1929 40.3469 49.0567 37.1616 49.9681C36.8374 50.0621 36.7576 50.1842 36.8844 50.5037C37.3636 51.7158 38.3361 52.3406 39.5435 52.646C40.2247 52.8198 40.9341 52.8856 41.6294 52.9748C43.0106 53.1534 43.1845 53.2896 43.5556 54.6285C43.5603 54.6426 43.5556 54.652 43.5509 54.7037C43.4945 54.699 43.4241 54.7131 43.3771 54.6849C42.4657 54.2292 41.4744 54.1399 40.4784 54.046C39.52 53.9567 38.6086 53.6983 37.7723 53.2285C36.781 52.6742 36.0622 51.8849 35.7099 50.8043C35.63 50.5553 35.5502 50.4097 35.2307 50.5178C33.1213 51.2319 31.0213 51.2413 28.9541 50.3674C28.9118 50.3486 28.8508 50.358 28.7239 50.3533C28.7944 50.5084 28.8367 50.6258 28.8978 50.7339C30.3119 53.205 32.4964 54.6567 35.2495 55.3661C36.2173 55.6151 37.1992 55.8547 38.1435 56.1742C39.5529 56.6487 40.7462 57.4849 41.8032 58.5044C42.8791 59.538 44.0959 60.3273 45.5523 60.7548C46.0315 60.8957 46.21 61.1823 46.0972 61.5346C45.9845 61.8917 45.6415 62.0044 45.1576 61.8729C43.5603 61.4313 42.2261 60.5669 41.0469 59.4487C40.8073 59.2232 40.5583 59.0165 40.3093 58.7957C40.2811 58.8145 40.2529 58.8333 40.2247 58.8521C40.3422 59.3501 40.4784 59.8434 40.5771 60.346C40.8307 61.6145 40.8261 62.8877 40.5348 64.1514C40.4314 64.5978 40.1354 64.8515 39.7925 64.7857C39.4072 64.7105 39.2287 64.391 39.3415 63.9025C39.8113 61.8353 39.4072 59.8856 38.5287 57.997C38.3596 57.6306 38.1106 57.391 37.716 57.2829C36.6589 56.9963 35.5971 56.7098 34.5401 56.4091C31.726 55.6104 29.485 54.0507 27.9675 51.5607C27.9206 51.4856 27.8548 51.4198 27.7326 51.2694C27.6998 51.4809 27.6622 51.603 27.6669 51.7205C27.7044 53.0782 27.742 54.4312 27.7843 55.789C27.7984 56.1742 27.9863 56.4326 28.3011 56.6816C30.683 58.5326 32.6092 60.7313 33.6944 63.5595C33.6991 63.5736 33.7085 63.583 33.7085 63.5971C33.9481 65.1051 35.1649 65.5045 36.4052 65.8145C36.8891 65.9367 37.4294 65.8897 37.9368 65.8803C38.3643 65.8709 38.6837 66.0495 38.726 66.3924C38.7683 66.7213 38.5334 66.9891 38.1247 67.0642C37.0582 67.2521 36.0482 67.0407 35.0569 66.6649C34.9723 66.632 34.883 66.6038 34.7045 66.5427C34.7609 66.7495 34.7891 66.8951 34.8408 67.0313C35.3622 68.3092 35.9589 69.5448 36.8797 70.6018C37.1334 70.8931 37.1052 71.2314 36.8421 71.4569C36.5884 71.673 36.2032 71.6777 35.973 71.3723C35.4562 70.677 34.9347 69.9723 34.5119 69.2159C33.671 67.7126 33.1964 66.0729 32.6891 64.438C31.9374 62.0232 30.3917 60.1158 28.5266 58.4292C28.4984 58.4058 28.4561 58.4011 28.3434 58.3541C28.3716 58.5561 28.3904 58.7111 28.4186 58.8709C28.6722 60.2192 28.9635 61.5581 29.1702 62.9159C29.33 63.9682 29.1843 65.0159 28.8837 66.0354C28.5031 67.3038 28.8273 68.4736 29.8749 69.2864C31.0494 70.2072 31.5474 71.4099 31.5568 72.8475C31.5568 72.9509 31.5568 73.0636 31.5333 73.167C31.4723 73.4958 31.2797 73.6932 30.9273 73.7025C30.6031 73.7072 30.3729 73.4629 30.3306 73.1106C30.2743 72.622 30.279 72.1146 30.1286 71.6589C29.9971 71.2549 29.7199 70.8837 29.4521 70.5455C29.2595 70.2965 28.9635 70.1273 28.7333 69.9018C28.5172 69.6857 28.3293 69.4414 28.0803 69.1502C28.0427 69.4038 28.0145 69.6012 27.9816 69.7985C27.7185 71.4616 27.7373 73.1153 28.1696 74.7549C28.1743 74.769 28.1743 74.7784 28.179 74.7925C28.2964 75.2858 28.1555 75.6052 27.7796 75.6945C27.4132 75.7838 27.1172 75.5677 26.995 75.0744C26.887 74.6328 26.7836 74.1911 26.7179 73.7448C26.436 71.8186 26.6286 69.9206 27.0702 68.0367C27.3474 66.8716 27.6716 65.7206 27.9347 64.5555C28.0192 64.1749 27.991 63.7709 28.0192 63.3763C27.9534 63.3293 27.8877 63.2776 27.8172 63.2306C27.7749 63.3387 27.7655 63.4655 27.6904 63.5501C27.2159 64.1092 26.7648 64.7011 26.234 65.2085C25.4118 65.9931 24.8246 66.8528 24.8574 68.032C24.8668 68.4032 24.5991 68.6616 24.2655 68.671C23.9319 68.6757 23.6688 68.4361 23.65 68.0602C23.5843 66.834 24.0447 65.7958 24.8574 64.889C25.097 64.6212 25.3742 64.3816 25.642 64.1327C26.5252 63.3105 27.1219 62.3004 27.5447 61.187C27.587 61.0789 27.6293 60.9474 27.6058 60.8393C27.3897 59.8528 27.1595 58.8709 26.9246 57.8561C26.8165 57.889 26.7414 57.8937 26.6991 57.9266C24.6695 59.6132 22.9829 61.5534 22.0668 64.0434C21.6158 65.2696 21.2635 66.5287 20.803 67.7501C20.3614 68.9293 19.7648 70.0381 18.9708 71.0341C18.8956 71.128 18.8205 71.222 18.7359 71.3112C18.4117 71.6589 18.0594 71.7153 17.7775 71.4663C17.4909 71.2173 17.5097 70.8931 17.8292 70.5173C18.7641 69.4179 19.356 68.1354 19.8775 66.8152C19.901 66.7589 19.8916 66.6931 19.901 66.5756C19.7648 66.6179 19.6661 66.6414 19.5769 66.679C18.5997 67.0548 17.599 67.2615 16.5466 67.0877C16.0956 67.0126 15.856 66.7542 15.9077 66.4112C15.9594 66.0448 16.2741 65.8568 16.7392 65.9085C18.1346 66.0776 19.3326 65.6219 20.4131 64.8045C20.5212 64.7246 20.6104 64.579 20.648 64.4474C21.4796 61.5769 23.2601 59.336 25.4776 57.3769C25.5809 57.2876 25.6702 57.1796 25.7877 57.1185C26.5346 56.7333 26.6521 56.1601 26.5158 55.3708C26.3655 54.497 26.4172 53.595 26.3843 52.7023C26.3796 52.552 26.3843 52.397 26.3843 52.2466C26.3373 52.2184 26.2903 52.1903 26.2434 52.1668C26.2011 52.2466 26.1729 52.3359 26.1165 52.4064C24.3548 54.7554 21.94 56.0661 19.0836 56.691C18.2896 56.8648 17.5191 57.1232 16.7533 57.3863C16.5466 57.4568 16.3305 57.6494 16.2319 57.8373C15.2359 59.787 14.8084 61.8212 15.3157 63.9917C15.405 64.377 15.2359 64.6917 14.8976 64.7857C14.5735 64.8749 14.254 64.6776 14.1506 64.2877C13.7795 62.9065 13.8124 61.5206 14.113 60.1346C14.2023 59.7212 14.3151 59.3125 14.4184 58.9037C14.3855 58.8803 14.3573 58.8568 14.3292 58.8286C14.1318 58.9977 13.9251 59.1621 13.7325 59.3407C12.7036 60.3038 11.5996 61.1541 10.2372 61.6333C9.9318 61.7414 9.62643 61.8494 9.31166 61.934C8.9687 62.0279 8.63514 61.84 8.53178 61.5253C8.44252 61.2434 8.61165 60.9051 8.95461 60.8111C10.6318 60.3601 11.9566 59.3736 13.1875 58.2084C14.7661 56.7145 16.7111 55.9487 18.8205 55.5071C21.4843 54.9527 23.7158 53.7171 25.2897 51.4809C25.5058 51.1708 25.689 50.8325 25.8863 50.5084C25.8628 50.4802 25.8393 50.4567 25.8158 50.4285C25.6655 50.4708 25.5152 50.5037 25.3695 50.5553C23.4527 51.2131 21.5312 51.2037 19.6144 50.5929C19.2433 50.4755 19.0601 50.4661 18.905 50.8983C18.2661 52.6413 16.8614 53.4963 15.1137 53.8862C14.2164 54.0883 13.2909 54.1587 12.3842 54.3279C10.7352 54.6332 9.59354 55.6245 8.79957 57.0245C8.60226 57.3722 8.4848 57.7574 8.35326 58.1333C8.20762 58.5467 7.93044 58.744 7.56869 58.6501C7.23983 58.5608 7.0754 58.2507 7.16936 57.8467C7.39016 56.9212 7.85057 56.1131 8.44252 55.3708C8.5083 55.2863 8.57877 55.2064 8.64454 55.1218C8.65863 55.103 8.65393 55.0702 8.66803 54.9809C8.53178 54.9621 8.40024 54.9339 8.264 54.9198C7.48882 54.8259 6.74653 54.6238 6.07941 54.2104C5.68008 53.9614 5.57203 53.6138 5.77874 53.3037C5.97606 53.003 6.29552 52.9654 6.71365 53.1862C8.12306 53.9238 9.57475 53.9285 11.0875 53.4916C12.0036 53.2238 12.9667 53.1064 13.9016 52.8856C14.6486 52.7117 15.4097 52.5473 16.1191 52.2654C16.9272 51.9413 17.4627 51.2976 17.7775 50.4849C17.8809 50.2171 17.8245 50.0761 17.5285 49.9916C14.3479 49.0755 11.266 49.1976 8.264 50.6869C6.74184 51.4433 5.17269 52.1151 3.59885 52.7681C3.04449 52.9983 2.42434 53.0876 1.8277 53.1862C1.35789 53.2661 1.05252 53.0453 1.00554 52.6742C0.958559 52.3171 1.21225 52.0728 1.69615 52.007C3.08677 51.8144 4.34584 51.246 5.60021 50.6728C5.6425 50.654 5.67538 50.607 5.73646 50.5506C5.13041 50.4332 4.53846 50.3815 4.00288 50.1936C3.38744 49.9775 2.79079 49.6768 2.23173 49.3386C1.8183 49.0896 1.78541 48.7137 2.03441 48.4224C2.27871 48.1359 2.59817 48.1171 2.96932 48.4083C3.83845 49.0802 4.87202 49.2164 5.91498 49.3151C6.07472 49.3292 6.23915 49.3245 6.40358 49.3339C7.61567 49.4231 8.75259 49.1741 9.89891 48.7748C12.2902 47.9385 14.7332 48.0607 17.1621 48.6761C18.3554 48.9815 19.5299 49.3761 20.7279 49.6533C22.7809 50.1278 24.7165 49.7755 26.5205 48.709C26.7695 48.5587 26.9152 48.3802 26.9387 48.0795C27.0843 46.3553 26.8588 38.3921 26.9246 36.668" stroke="#05A93D" stroke-width="0.469803"/>
<path d="M47.6473 58.3402C47.6426 58.2039 47.6191 58.0865 47.5722 58.0066C47.1822 57.3066 46.7782 56.616 46.3695 55.9207C46.346 55.8784 46.3131 55.8408 46.2661 55.7798C46.252 55.7657 46.2379 55.7469 46.2191 55.7281C46.1815 55.6811 46.1346 55.6294 46.0876 55.5684L45.8198 55.2301L46.2473 55.1878C46.3131 55.1831 46.3742 55.1737 46.4305 55.169C46.5809 55.1549 46.6889 55.1455 46.8017 55.1314C47.5722 55.0375 48.291 54.8402 48.9158 54.4408C49.0426 54.361 49.099 54.2717 49.1178 54.2012C49.1366 54.1355 49.1272 54.0603 49.0708 53.9851C49.0098 53.8959 48.9299 53.8442 48.85 53.8301C48.7655 53.8113 48.6574 53.8254 48.5259 53.8959C47.7366 54.3328 46.8862 54.4925 46.0077 54.5348H46.003H45.9983C44.9366 54.5301 44.3305 54.1401 43.809 53.769C43.7902 53.7549 43.7668 53.7408 43.748 53.7267C43.3909 53.473 43.0761 53.2522 42.6533 53.1536C42.7144 53.2616 42.7849 53.3838 42.8459 53.5059C42.9681 53.7361 43.0902 53.9804 43.1748 54.1777C43.2171 54.2764 43.25 54.3657 43.2735 54.4408C43.2829 54.4784 43.2923 54.5207 43.297 54.5677C43.297 54.5818 43.297 54.6006 43.297 54.624C43.3862 54.6945 43.5412 54.7885 43.7292 54.8918C43.8795 54.9717 44.0392 55.0563 44.1943 55.1361C44.2272 55.1549 44.26 55.1737 44.2929 55.1878C44.4668 55.2771 44.6312 55.3663 44.7299 55.4321C45.5661 55.9912 46.2003 56.71 46.6138 57.5885C46.6842 57.7435 46.7453 57.9033 46.797 58.0536C46.8017 58.0724 46.8111 58.0912 46.8158 58.11C46.8628 58.2415 46.905 58.3684 46.9567 58.4858C46.999 58.5845 47.0554 58.6362 47.1118 58.6691C47.1728 58.6972 47.2621 58.7113 47.3842 58.6878L47.6473 58.3402ZM47.6473 58.3402C47.652 58.4482 47.6285 58.5187 47.591 58.5657C47.5581 58.6127 47.4923 58.655 47.3748 58.6785L47.6473 58.3402Z" fill="#05A93D"/>
<path d="M47.6473 58.3402C47.6426 58.2039 47.6191 58.0865 47.5722 58.0066C47.1822 57.3066 46.7782 56.616 46.3695 55.9207C46.346 55.8784 46.3131 55.8408 46.2661 55.7798C46.252 55.7657 46.2379 55.7469 46.2191 55.7281C46.1815 55.6811 46.1346 55.6294 46.0876 55.5684L45.8198 55.2301L46.2473 55.1878C46.3131 55.1831 46.3742 55.1737 46.4305 55.169C46.5809 55.1549 46.6889 55.1455 46.8017 55.1314C47.5722 55.0375 48.291 54.8402 48.9158 54.4408C49.0426 54.361 49.099 54.2717 49.1178 54.2012C49.1366 54.1355 49.1272 54.0603 49.0708 53.9851C49.0098 53.8959 48.9299 53.8442 48.85 53.8301C48.7655 53.8113 48.6574 53.8254 48.5259 53.8959C47.7366 54.3328 46.8862 54.4925 46.0077 54.5348H46.003H45.9983C44.9366 54.5301 44.3305 54.1401 43.809 53.769C43.7902 53.7549 43.7668 53.7408 43.748 53.7267C43.3909 53.473 43.0761 53.2522 42.6533 53.1536C42.7144 53.2616 42.7849 53.3838 42.8459 53.5059C42.9681 53.7361 43.0902 53.9804 43.1748 54.1777C43.2171 54.2764 43.25 54.3657 43.2735 54.4408C43.2829 54.4784 43.2923 54.5207 43.297 54.5677C43.297 54.5818 43.297 54.6006 43.297 54.624C43.3862 54.6945 43.5412 54.7885 43.7292 54.8918C43.8795 54.9717 44.0392 55.0563 44.1943 55.1361C44.2272 55.1549 44.26 55.1737 44.2929 55.1878C44.4668 55.2771 44.6312 55.3663 44.7299 55.4321C45.5661 55.9912 46.2003 56.71 46.6138 57.5885C46.6842 57.7435 46.7453 57.9033 46.797 58.0536C46.8017 58.0724 46.8111 58.0912 46.8158 58.11C46.8628 58.2415 46.905 58.3684 46.9567 58.4858C46.999 58.5845 47.0554 58.6362 47.1118 58.6691C47.1728 58.6972 47.2621 58.7113 47.3842 58.6878L47.6473 58.3402ZM47.6473 58.3402C47.652 58.4482 47.6285 58.5187 47.591 58.5657C47.5581 58.6127 47.4923 58.655 47.3748 58.6785L47.6473 58.3402Z" stroke="#05A93D" stroke-width="0.469803"/>
</svg>
