<svg width="12" height="14" viewBox="0 0 12 14" fill="none" xmlns="http://www.w3.org/2000/svg">
<g clip-path="url(#clip0_2522_530)">
<path d="M9.72591 9.72541H9.00977V9.29508C9.00977 9.06557 9.12435 8.95082 9.35352 8.95082H9.38216C9.61133 8.95082 9.72591 9.06557 9.72591 9.29508V9.72541ZM7.00456 8.80737C6.77539 8.80737 6.66081 8.903 6.66081 9.09426V11.1311C6.66081 11.3224 6.77539 11.418 7.00456 11.418C7.23372 11.418 7.34831 11.3224 7.34831 11.1311V9.09426C7.34831 8.903 7.23372 8.80737 7.00456 8.80737ZM11.416 7.65983V11.5615C11.416 12.0396 11.2394 12.4413 10.8861 12.7664C10.5328 13.0915 10.1079 13.2541 9.61133 13.2541H2.2207C1.72418 13.2541 1.29926 13.0915 0.945964 12.7664C0.592665 12.4413 0.416016 12.0396 0.416016 11.5615V7.65983C0.416016 7.20082 0.592665 6.80396 0.945964 6.46926C1.29926 6.13456 1.72418 5.96721 2.2207 5.96721H9.61133C10.1079 5.96721 10.5328 6.13456 10.8861 6.46926C11.2394 6.80396 11.416 7.20082 11.416 7.65983ZM2.70768 11.9918V7.88934H3.62435V7.28688L1.18945 7.25819V7.86065H1.93424V11.9918H2.70768ZM5.45768 8.4918H4.68425V11.2172C4.64605 11.3128 4.57921 11.375 4.48372 11.4037C4.38824 11.4324 4.31185 11.3798 4.25456 11.2459V10.7008L4.22591 8.4918H3.48112V11.3607C3.51931 11.6858 3.58615 11.877 3.68164 11.9344C3.85352 12.0492 4.06836 12.054 4.32617 11.9488C4.58398 11.8436 4.76063 11.7049 4.85612 11.5328V11.9918H5.45768V8.4918ZM7.89258 11.0164V9.18032C7.89258 8.81694 7.778 8.5683 7.54883 8.43442C7.31966 8.30054 7.0332 8.36748 6.68945 8.63524V7.28688H5.91602V11.9631H6.54622L6.60352 11.6475C7.00456 11.9918 7.32444 12.0874 7.56315 11.9344C7.80187 11.7814 7.91168 11.4754 7.89258 11.0164ZM10.2988 10.7582H9.72591V11.1598C9.72591 11.3702 9.62088 11.4754 9.41081 11.4754H9.29622C9.08615 11.4754 8.98112 11.3702 8.98112 11.1598V10.3279H10.2988V9.84016C10.2988 9.34289 10.2893 9.02732 10.2702 8.89344C10.2129 8.58743 10.0076 8.39617 9.6543 8.31967C9.301 8.24317 9.00977 8.29098 8.7806 8.46311C8.62782 8.59699 8.52279 8.74043 8.4655 8.89344C8.4082 9.08469 8.37956 9.34289 8.37956 9.66803V10.7582C8.37956 11.4658 8.64692 11.877 9.18164 11.9918C9.63997 12.0874 9.97418 11.9344 10.1842 11.5328C10.3179 11.3224 10.3561 11.0642 10.2988 10.7582ZM7.34831 4.84836C7.3865 4.94398 7.45334 5.02049 7.54883 5.07786C7.62522 5.13524 7.73025 5.16393 7.86393 5.16393C7.97852 5.16393 8.074 5.13524 8.15039 5.07786C8.22678 5.02049 8.29362 4.93442 8.35091 4.81967V5.10655H9.21029V1.46311H8.52279V4.30327C8.52279 4.49453 8.4273 4.59016 8.23633 4.59016C8.06445 4.59016 7.97852 4.49453 7.97852 4.30327V1.46311H7.26237V3.93032C7.26237 4.27459 7.27192 4.48497 7.29102 4.56147C7.29102 4.63797 7.31011 4.7336 7.34831 4.84836ZM4.77018 2.81147C4.77018 2.46721 4.79883 2.18989 4.85612 1.9795C4.91341 1.80737 5.01845 1.65437 5.17122 1.52049C5.324 1.40573 5.51497 1.34836 5.74414 1.34836C5.95421 1.34836 6.12609 1.38661 6.25977 1.46311C6.39345 1.52049 6.49848 1.61612 6.57487 1.75C6.65126 1.84562 6.70855 1.96994 6.74675 2.12295C6.76584 2.21858 6.77539 2.41939 6.77539 2.72541V3.64344C6.77539 4.02595 6.76584 4.27459 6.74675 4.38934C6.72765 4.52322 6.67036 4.66666 6.57487 4.81967C6.51758 4.9153 6.41254 5.02049 6.25977 5.13524C6.10699 5.19262 5.95421 5.22131 5.80143 5.22131C5.61046 5.22131 5.43859 5.19262 5.28581 5.13524C5.15213 5.07786 5.04709 4.9918 4.9707 4.87705C4.89431 4.72404 4.84657 4.59016 4.82747 4.47541C4.78928 4.28415 4.77018 4.04508 4.77018 3.75819V2.81147ZM5.42904 4.2459C5.42904 4.34153 5.46246 4.42759 5.5293 4.50409C5.59614 4.5806 5.6773 4.61885 5.77279 4.61885C6.00195 4.61885 6.11654 4.49453 6.11654 4.2459V2.32377C6.11654 2.07513 6.00195 1.95082 5.77279 1.95082C5.54362 1.95082 5.42904 2.07513 5.42904 2.32377V4.2459ZM3.08008 5.22131H3.88216V2.43852L4.82747 0.057373H3.9681L3.45247 1.83606L2.93685 0.057373H2.07747L3.08008 2.43852V5.22131Z" fill="white"/>
</g>
<defs>
<clipPath id="clip0_2522_530">
<rect width="11" height="14" fill="white" transform="translate(0.416016)"/>
</clipPath>
</defs>
</svg>
