<svg width="14" height="12" viewBox="0 0 14 12" fill="none" xmlns="http://www.w3.org/2000/svg">
<path d="M13.7148 1.30176C13.2396 1.52956 12.7274 1.67927 12.1968 1.75086C12.7398 1.4059 13.1594 0.85916 13.3569 0.201772C12.8447 0.527212 12.277 0.755019 11.6784 0.885195C11.1909 0.325439 10.506 0 9.72849 0C8.27837 0 7.0936 1.24969 7.0936 2.79227C7.0936 3.01357 7.11828 3.22836 7.16148 3.43013C4.96471 3.31297 3.0086 2.19997 1.70659 0.514194C1.47827 0.924247 1.34869 1.4059 1.34869 1.91358C1.34869 2.88339 1.81149 3.74255 2.52729 4.23071C2.08917 4.23071 1.6819 4.10053 1.324 3.90527V3.9248C1.324 5.27862 2.23727 6.41115 3.44672 6.665C3.05842 6.77708 2.65076 6.79268 2.25578 6.71056C2.42338 7.26542 2.75162 7.75093 3.19435 8.09884C3.63708 8.44674 4.17205 8.63956 4.72405 8.65018C3.78835 9.43151 2.62848 9.85386 1.43507 9.84779C1.22527 9.84779 1.01547 9.83477 0.805664 9.80874C1.9781 10.6028 3.37267 11.0649 4.86598 11.0649C9.72849 11.0649 12.4004 6.80819 12.4004 3.11771C12.4004 2.99404 12.4004 2.87688 12.3942 2.75322C12.9126 2.36269 13.3569 1.86802 13.7148 1.30176Z" fill="white"/>
</svg>
